<svg xmlns="http://www.w3.org/2000/svg" xmlns:xlink="http://www.w3.org/1999/xlink" width="150" zoomAndPan="magnify" viewBox="0 0 112.5 37.5" height="50" preserveAspectRatio="xMidYMid meet" version="1.0"><defs><g/><clipPath id="f10eb315e8"><path d="M 1.480469 2 L 29.605469 2 L 29.605469 35.023438 L 1.480469 35.023438 Z M 1.480469 2 " clip-rule="nonzero"/></clipPath></defs><g fill="#003049" fill-opacity="1"><g transform="translate(32.707647, 22.944079)"><g><path d="M 3.9375 -6.4375 L 1.375 -0.421875 C 1.320312 -0.265625 1.238281 -0.144531 1.125 -0.0625 C 1.007812 0.0195312 0.882812 0.0625 0.75 0.0625 C 0.53125 0.0625 0.367188 0.00390625 0.265625 -0.109375 C 0.171875 -0.234375 0.125 -0.382812 0.125 -0.5625 C 0.125 -0.625 0.132812 -0.695312 0.15625 -0.78125 L 3.109375 -7.859375 C 3.171875 -8.015625 3.265625 -8.132812 3.390625 -8.21875 C 3.523438 -8.3125 3.664062 -8.351562 3.8125 -8.34375 C 3.957031 -8.34375 4.085938 -8.300781 4.203125 -8.21875 C 4.328125 -8.132812 4.421875 -8.015625 4.484375 -7.859375 L 7.390625 -0.921875 C 7.429688 -0.816406 7.453125 -0.722656 7.453125 -0.640625 C 7.453125 -0.421875 7.378906 -0.25 7.234375 -0.125 C 7.097656 0 6.945312 0.0625 6.78125 0.0625 C 6.644531 0.0625 6.519531 0.0195312 6.40625 -0.0625 C 6.289062 -0.15625 6.203125 -0.273438 6.140625 -0.421875 L 3.59375 -6.359375 Z M 1.734375 -1.859375 L 2.390625 -3.21875 L 5.59375 -3.21875 L 5.8125 -1.859375 Z M 1.734375 -1.859375 "/></g></g></g><g fill="#003049" fill-opacity="1"><g transform="translate(42.347131, 22.944079)"><g><path d="M 5.453125 -1.390625 C 5.660156 -1.390625 5.832031 -1.320312 5.96875 -1.1875 C 6.113281 -1.0625 6.1875 -0.894531 6.1875 -0.6875 C 6.1875 -0.488281 6.113281 -0.320312 5.96875 -0.1875 C 5.832031 -0.0625 5.660156 0 5.453125 0 L 1.609375 0 C 1.398438 0 1.226562 -0.0664062 1.09375 -0.203125 C 0.957031 -0.347656 0.890625 -0.519531 0.890625 -0.71875 L 0.890625 -7.5625 C 0.890625 -7.769531 0.957031 -7.941406 1.09375 -8.078125 C 1.238281 -8.222656 1.421875 -8.296875 1.640625 -8.296875 C 1.835938 -8.296875 2.007812 -8.222656 2.15625 -8.078125 C 2.300781 -7.941406 2.375 -7.769531 2.375 -7.5625 L 2.375 -1.1875 L 2.109375 -1.390625 Z M 5.453125 -1.390625 "/></g></g></g><g fill="#003049" fill-opacity="1"><g transform="translate(51.074777, 22.944079)"><g><path d="M 4.796875 0.125 C 4.191406 0.125 3.628906 0.015625 3.109375 -0.203125 C 2.585938 -0.429688 2.128906 -0.738281 1.734375 -1.125 C 1.347656 -1.519531 1.039062 -1.972656 0.8125 -2.484375 C 0.582031 -2.992188 0.46875 -3.546875 0.46875 -4.140625 C 0.46875 -4.734375 0.582031 -5.285156 0.8125 -5.796875 C 1.039062 -6.316406 1.347656 -6.769531 1.734375 -7.15625 C 2.128906 -7.550781 2.585938 -7.859375 3.109375 -8.078125 C 3.628906 -8.296875 4.191406 -8.40625 4.796875 -8.40625 C 5.171875 -8.40625 5.53125 -8.363281 5.875 -8.28125 C 6.21875 -8.207031 6.535156 -8.09375 6.828125 -7.9375 C 6.953125 -7.875 7.039062 -7.785156 7.09375 -7.671875 C 7.15625 -7.566406 7.1875 -7.460938 7.1875 -7.359375 C 7.1875 -7.171875 7.125 -7 7 -6.84375 C 6.875 -6.695312 6.710938 -6.625 6.515625 -6.625 C 6.453125 -6.625 6.382812 -6.628906 6.3125 -6.640625 C 6.25 -6.660156 6.1875 -6.6875 6.125 -6.71875 C 5.925781 -6.800781 5.710938 -6.863281 5.484375 -6.90625 C 5.265625 -6.957031 5.035156 -6.984375 4.796875 -6.984375 C 4.285156 -6.984375 3.816406 -6.851562 3.390625 -6.59375 C 2.972656 -6.34375 2.640625 -6 2.390625 -5.5625 C 2.140625 -5.132812 2.015625 -4.660156 2.015625 -4.140625 C 2.015625 -3.628906 2.140625 -3.15625 2.390625 -2.71875 C 2.640625 -2.289062 2.972656 -1.945312 3.390625 -1.6875 C 3.816406 -1.425781 4.285156 -1.296875 4.796875 -1.296875 C 5.035156 -1.296875 5.296875 -1.316406 5.578125 -1.359375 C 5.859375 -1.410156 6.09375 -1.476562 6.28125 -1.5625 L 6.171875 -1.203125 L 6.171875 -3.234375 L 6.375 -3.0625 L 5.0625 -3.0625 C 4.851562 -3.0625 4.675781 -3.125 4.53125 -3.25 C 4.394531 -3.382812 4.328125 -3.554688 4.328125 -3.765625 C 4.328125 -3.972656 4.394531 -4.144531 4.53125 -4.28125 C 4.675781 -4.414062 4.851562 -4.484375 5.0625 -4.484375 L 7 -4.484375 C 7.207031 -4.484375 7.375 -4.410156 7.5 -4.265625 C 7.632812 -4.128906 7.703125 -3.957031 7.703125 -3.75 L 7.703125 -1.25 C 7.703125 -1.082031 7.664062 -0.945312 7.59375 -0.84375 C 7.519531 -0.75 7.4375 -0.671875 7.34375 -0.609375 C 6.976562 -0.378906 6.578125 -0.195312 6.140625 -0.0625 C 5.710938 0.0625 5.265625 0.125 4.796875 0.125 Z M 4.796875 0.125 "/></g></g></g><g fill="#003049" fill-opacity="1"><g transform="translate(61.389263, 22.944079)"><g><path d="M 8.515625 -4.140625 C 8.515625 -3.546875 8.414062 -2.992188 8.21875 -2.484375 C 8.019531 -1.972656 7.738281 -1.519531 7.375 -1.125 C 7.019531 -0.738281 6.59375 -0.429688 6.09375 -0.203125 C 5.601562 0.015625 5.066406 0.125 4.484375 0.125 C 3.898438 0.125 3.363281 0.015625 2.875 -0.203125 C 2.382812 -0.429688 1.957031 -0.738281 1.59375 -1.125 C 1.238281 -1.519531 0.960938 -1.972656 0.765625 -2.484375 C 0.566406 -2.992188 0.46875 -3.546875 0.46875 -4.140625 C 0.46875 -4.734375 0.566406 -5.285156 0.765625 -5.796875 C 0.960938 -6.316406 1.238281 -6.769531 1.59375 -7.15625 C 1.957031 -7.550781 2.382812 -7.859375 2.875 -8.078125 C 3.363281 -8.296875 3.898438 -8.40625 4.484375 -8.40625 C 5.066406 -8.40625 5.601562 -8.296875 6.09375 -8.078125 C 6.59375 -7.859375 7.019531 -7.550781 7.375 -7.15625 C 7.738281 -6.769531 8.019531 -6.316406 8.21875 -5.796875 C 8.414062 -5.285156 8.515625 -4.734375 8.515625 -4.140625 Z M 6.96875 -4.140625 C 6.96875 -4.671875 6.863281 -5.148438 6.65625 -5.578125 C 6.445312 -6.015625 6.15625 -6.359375 5.78125 -6.609375 C 5.40625 -6.859375 4.972656 -6.984375 4.484375 -6.984375 C 3.992188 -6.984375 3.5625 -6.859375 3.1875 -6.609375 C 2.820312 -6.359375 2.535156 -6.019531 2.328125 -5.59375 C 2.117188 -5.164062 2.015625 -4.679688 2.015625 -4.140625 C 2.015625 -3.617188 2.117188 -3.140625 2.328125 -2.703125 C 2.535156 -2.273438 2.820312 -1.929688 3.1875 -1.671875 C 3.5625 -1.421875 3.992188 -1.296875 4.484375 -1.296875 C 4.972656 -1.296875 5.40625 -1.421875 5.78125 -1.671875 C 6.15625 -1.929688 6.445312 -2.273438 6.65625 -2.703125 C 6.863281 -3.140625 6.96875 -3.617188 6.96875 -4.140625 Z M 6.96875 -4.140625 "/></g></g></g><g fill="#003049" fill-opacity="1"><g transform="translate(72.455024, 22.944079)"><g><path d="M 1.46875 -8.296875 C 1.519531 -8.296875 1.578125 -8.28125 1.640625 -8.25 C 1.703125 -8.226562 1.75 -8.191406 1.78125 -8.140625 L 5.0625 -3.234375 L 4.734375 -3.25 L 8.015625 -8.140625 C 8.109375 -8.253906 8.21875 -8.304688 8.34375 -8.296875 C 8.4375 -8.296875 8.515625 -8.257812 8.578125 -8.1875 C 8.648438 -8.125 8.6875 -8.039062 8.6875 -7.9375 L 8.6875 -0.359375 C 8.6875 -0.265625 8.648438 -0.179688 8.578125 -0.109375 C 8.503906 -0.0351562 8.414062 0 8.3125 0 C 8.207031 0 8.117188 -0.0351562 8.046875 -0.109375 C 7.972656 -0.179688 7.9375 -0.265625 7.9375 -0.359375 L 7.9375 -7.21875 L 8.15625 -7.1875 L 5.15625 -2.65625 C 5.125 -2.601562 5.082031 -2.5625 5.03125 -2.53125 C 4.988281 -2.507812 4.9375 -2.503906 4.875 -2.515625 C 4.820312 -2.503906 4.769531 -2.507812 4.71875 -2.53125 C 4.664062 -2.5625 4.625 -2.601562 4.59375 -2.65625 L 1.59375 -7.234375 L 1.8125 -7.390625 L 1.8125 -0.359375 C 1.8125 -0.265625 1.773438 -0.179688 1.703125 -0.109375 C 1.640625 -0.0351562 1.554688 0 1.453125 0 C 1.347656 0 1.265625 -0.0351562 1.203125 -0.109375 C 1.140625 -0.179688 1.109375 -0.265625 1.109375 -0.359375 L 1.109375 -7.9375 C 1.109375 -8.03125 1.140625 -8.113281 1.203125 -8.1875 C 1.273438 -8.257812 1.363281 -8.296875 1.46875 -8.296875 Z M 1.46875 -8.296875 "/></g></g></g><g fill="#003049" fill-opacity="1"><g transform="translate(84.320831, 22.944079)"><g><path d="M 3.890625 -7.375 L 1 -0.21875 C 0.96875 -0.144531 0.925781 -0.0859375 0.875 -0.046875 C 0.820312 -0.00390625 0.757812 0.015625 0.6875 0.015625 C 0.570312 0.015625 0.488281 -0.015625 0.4375 -0.078125 C 0.382812 -0.140625 0.351562 -0.210938 0.34375 -0.296875 C 0.332031 -0.335938 0.335938 -0.382812 0.359375 -0.4375 L 3.484375 -8.09375 C 3.523438 -8.175781 3.570312 -8.234375 3.625 -8.265625 C 3.6875 -8.304688 3.757812 -8.328125 3.84375 -8.328125 C 3.914062 -8.328125 3.984375 -8.304688 4.046875 -8.265625 C 4.109375 -8.222656 4.15625 -8.164062 4.1875 -8.09375 L 7.296875 -0.46875 C 7.304688 -0.425781 7.3125 -0.378906 7.3125 -0.328125 C 7.3125 -0.222656 7.273438 -0.140625 7.203125 -0.078125 C 7.140625 -0.015625 7.0625 0.015625 6.96875 0.015625 C 6.882812 0.015625 6.8125 -0.00390625 6.75 -0.046875 C 6.695312 -0.0976562 6.65625 -0.15625 6.625 -0.21875 L 3.671875 -7.421875 Z M 1.6875 -2.390625 L 1.984375 -3.09375 L 5.65625 -3.09375 L 5.796875 -2.390625 Z M 1.6875 -2.390625 "/></g></g></g><g fill="#003049" fill-opacity="1"><g transform="translate(94.055055, 22.944079)"><g><path d="M 1.515625 0 C 1.398438 0 1.300781 -0.0351562 1.21875 -0.109375 C 1.144531 -0.179688 1.109375 -0.265625 1.109375 -0.359375 L 1.109375 -7.9375 C 1.109375 -8.03125 1.144531 -8.113281 1.21875 -8.1875 C 1.289062 -8.257812 1.375 -8.296875 1.46875 -8.296875 L 4.671875 -8.296875 C 5.117188 -8.296875 5.519531 -8.195312 5.875 -8 C 6.226562 -7.800781 6.503906 -7.53125 6.703125 -7.1875 C 6.910156 -6.851562 7.015625 -6.472656 7.015625 -6.046875 C 7.015625 -5.703125 6.945312 -5.382812 6.8125 -5.09375 C 6.6875 -4.800781 6.507812 -4.550781 6.28125 -4.34375 C 6.0625 -4.144531 5.804688 -4 5.515625 -3.90625 L 5.109375 -4.03125 C 5.398438 -4.007812 5.671875 -3.914062 5.921875 -3.75 C 6.171875 -3.59375 6.375 -3.375 6.53125 -3.09375 C 6.6875 -2.8125 6.769531 -2.472656 6.78125 -2.078125 C 6.78125 -1.742188 6.796875 -1.476562 6.828125 -1.28125 C 6.859375 -1.09375 6.898438 -0.953125 6.953125 -0.859375 C 7.003906 -0.765625 7.078125 -0.691406 7.171875 -0.640625 C 7.242188 -0.585938 7.289062 -0.519531 7.3125 -0.4375 C 7.34375 -0.351562 7.335938 -0.269531 7.296875 -0.1875 C 7.265625 -0.125 7.21875 -0.078125 7.15625 -0.046875 C 7.101562 -0.0234375 7.039062 -0.015625 6.96875 -0.015625 C 6.90625 -0.015625 6.84375 -0.03125 6.78125 -0.0625 C 6.675781 -0.125 6.566406 -0.222656 6.453125 -0.359375 C 6.335938 -0.492188 6.238281 -0.691406 6.15625 -0.953125 C 6.082031 -1.210938 6.046875 -1.570312 6.046875 -2.03125 C 6.046875 -2.34375 5.992188 -2.597656 5.890625 -2.796875 C 5.796875 -2.992188 5.671875 -3.144531 5.515625 -3.25 C 5.367188 -3.351562 5.203125 -3.425781 5.015625 -3.46875 C 4.828125 -3.519531 4.648438 -3.546875 4.484375 -3.546875 L 1.734375 -3.546875 L 1.859375 -3.703125 L 1.859375 -0.359375 C 1.859375 -0.265625 1.828125 -0.179688 1.765625 -0.109375 C 1.703125 -0.0351562 1.617188 0 1.515625 0 Z M 1.734375 -4.1875 L 4.703125 -4.1875 C 4.972656 -4.21875 5.222656 -4.304688 5.453125 -4.453125 C 5.691406 -4.609375 5.882812 -4.820312 6.03125 -5.09375 C 6.175781 -5.363281 6.25 -5.675781 6.25 -6.03125 C 6.25 -6.476562 6.097656 -6.847656 5.796875 -7.140625 C 5.492188 -7.441406 5.097656 -7.59375 4.609375 -7.59375 L 1.78125 -7.59375 L 1.859375 -7.75 L 1.859375 -4.03125 Z M 1.734375 -4.1875 "/></g></g></g><g fill="#003049" fill-opacity="1"><g transform="translate(104.061645, 22.944079)"><g><path d="M 3.578125 0 C 3.460938 0 3.367188 -0.0351562 3.296875 -0.109375 C 3.234375 -0.179688 3.203125 -0.265625 3.203125 -0.359375 L 3.203125 -7.90625 L 3.9375 -7.90625 L 3.9375 -0.359375 C 3.9375 -0.265625 3.898438 -0.179688 3.828125 -0.109375 C 3.765625 -0.0351562 3.679688 0 3.578125 0 Z M 0.765625 -7.609375 C 0.660156 -7.609375 0.570312 -7.640625 0.5 -7.703125 C 0.4375 -7.773438 0.40625 -7.859375 0.40625 -7.953125 C 0.40625 -8.046875 0.4375 -8.125 0.5 -8.1875 C 0.570312 -8.257812 0.660156 -8.296875 0.765625 -8.296875 L 6.390625 -8.296875 C 6.484375 -8.296875 6.566406 -8.257812 6.640625 -8.1875 C 6.710938 -8.125 6.75 -8.046875 6.75 -7.953125 C 6.75 -7.847656 6.710938 -7.765625 6.640625 -7.703125 C 6.566406 -7.640625 6.484375 -7.609375 6.390625 -7.609375 Z M 0.765625 -7.609375 "/></g></g></g><g clip-path="url(#f10eb315e8)"><path fill="#ef6c00" d="M 9.207031 24.867188 C 9.058594 24.230469 9.414062 23.582031 10.03125 23.367188 L 12.003906 22.671875 L 11.648438 21.675781 C 10.824219 19.335938 12.054688 16.761719 14.394531 15.933594 C 16.730469 15.109375 19.308594 16.339844 20.132812 18.679688 L 20.484375 19.675781 L 22.457031 18.980469 C 23.074219 18.761719 23.757812 19.046875 24.039062 19.632812 L 28.601562 29.007812 L 29.835938 13.589844 C 29.90625 12.695312 29.296875 11.890625 28.421875 11.71875 L 25.617188 11.167969 L 25.894531 9.746094 C 26.546875 6.410156 24.367188 3.171875 21.03125 2.511719 C 17.695312 1.863281 14.457031 4.039062 13.800781 7.375 L 13.523438 8.800781 L 10.722656 8.25 C 9.839844 8.078125 8.96875 8.59375 8.699219 9.449219 L 1.820312 31.1875 C 1.492188 32.222656 2.144531 33.316406 3.210938 33.53125 L 11.578125 35.171875 Z M 25.117188 13.753906 C 25.03125 14.175781 24.621094 14.453125 24.195312 14.371094 C 23.769531 14.285156 23.492188 13.875 23.578125 13.449219 C 23.660156 13.023438 24.074219 12.746094 24.496094 12.832031 C 24.917969 12.914062 25.199219 13.328125 25.117188 13.753906 Z M 15.351562 7.683594 C 15.84375 5.207031 18.25 3.582031 20.738281 4.066406 C 23.222656 4.546875 24.839844 6.964844 24.355469 9.449219 L 24.078125 10.875 L 15.074219 9.109375 Z M 13.949219 10.765625 C 14.375 10.847656 14.648438 11.257812 14.566406 11.683594 C 14.484375 12.109375 14.070312 12.386719 13.644531 12.304688 C 13.21875 12.21875 12.945312 11.808594 13.027344 11.382812 C 13.105469 10.957031 13.515625 10.679688 13.949219 10.765625 Z M 13.949219 10.765625 " fill-opacity="1" fill-rule="nonzero"/></g><path fill="#ef6c00" d="M 19.050781 19.058594 C 18.4375 17.320312 16.519531 16.398438 14.773438 17.015625 C 13.035156 17.628906 12.113281 19.546875 12.730469 21.292969 L 13.085938 22.292969 L 19.402344 20.0625 Z M 19.050781 19.058594 " fill-opacity="1" fill-rule="nonzero"/><path fill="#ef6c00" d="M 12.988281 23.753906 C 12.691406 23.855469 12.53125 24.1875 12.640625 24.488281 C 12.742188 24.785156 13.074219 24.945312 13.375 24.835938 C 13.671875 24.734375 13.832031 24.40625 13.722656 24.101562 C 13.621094 23.804688 13.292969 23.644531 12.988281 23.753906 Z M 12.988281 23.753906 " fill-opacity="1" fill-rule="nonzero"/><path fill="#ef6c00" d="M 20.773438 22.222656 C 21.070312 22.117188 21.234375 21.789062 21.121094 21.488281 C 21.019531 21.191406 20.691406 21.03125 20.390625 21.140625 C 20.085938 21.25 19.929688 21.570312 20.042969 21.875 C 20.152344 22.167969 20.480469 22.332031 20.773438 22.222656 Z M 20.773438 22.222656 " fill-opacity="1" fill-rule="nonzero"/></svg>